<svg xmlns="http://www.w3.org/2000/svg" width="512" height="512" viewBox="0 0 512 512" version="1.1">
	<path d="M 236.500 2.062 C 168.578 7.345, 101.014 42.716, 58.019 95.500 C 28.326 131.955, 10.950 172.925, 3.944 223 C 2.076 236.359, 1.848 241.469, 2.294 260 C 2.993 288.964, 6.855 311.134, 15.535 336 C 37.359 398.519, 81.357 448.653, 140.074 477.908 C 196.087 505.815, 256.018 512.475, 316.673 497.535 C 380.562 481.798, 433.832 444.536, 468.975 391 C 497.245 347.935, 511.949 290.374, 508.048 238.045 C 505.315 201.385, 497.415 172.018, 481.537 139.500 C 469.926 115.720, 458.927 100.123, 440.018 80.621 C 419.193 59.143, 395.979 42.277, 367.504 27.936 C 348.086 18.157, 334.673 13.078, 317.500 9.004 C 289.268 2.305, 262.678 0.027, 236.500 2.062 M 236.469 16.985 C 195.054 20.484, 159.099 33.110, 124 56.477 C 61.200 98.288, 24.141 162.726, 18.011 240.773 C 15.261 275.776, 22.388 312.192, 39.298 349.546 C 68.431 413.901, 126.281 462.207, 195.500 479.979 C 264.321 497.648, 341.376 482.544, 398.209 440.244 C 436.979 411.388, 464.245 374.435, 479.435 330.158 C 489.523 300.750, 492.492 283.509, 492.464 254.500 C 492.441 232.297, 491.384 222.872, 486.370 200.183 C 479.048 167.045, 461.309 130.029, 440.277 104 C 433.293 95.357, 415.730 78.112, 405.433 69.787 C 378.560 48.059, 342.243 29.776, 311.500 22.499 C 289.959 17.399, 258.729 15.104, 236.469 16.985 M 234.717 33.117 C 204.280 36.050, 168.830 47.933, 139.682 64.973 C 80.510 99.566, 43.647 153.437, 34.621 218.510 C 28.282 264.205, 34.753 302.597, 55.930 344.942 C 77.028 387.128, 108.825 417.792, 154.500 440 C 178.129 451.489, 198.288 457.950, 222.096 461.666 C 239.737 464.419, 275.250 464.143, 292.373 461.120 C 339.824 452.743, 388.178 427.370, 420.544 393.863 C 480.618 331.672, 495.282 234.746, 456.618 155.412 C 446.147 133.926, 434.552 117.474, 418.977 102 C 386.280 69.516, 339.688 44.037, 298.500 36.115 C 278.136 32.199, 255.355 31.128, 234.717 33.117 M 231.536 47.146 C 211.024 49.774, 183.782 58.159, 162.500 68.395 C 118.025 89.786, 86.449 120.324, 66.452 161.288 C 54.766 185.227, 48.913 206.972, 46.812 234.255 C 44.154 268.759, 50.581 301.995, 66.336 335.230 C 84.518 373.583, 108.426 399.230, 146.194 420.896 C 195.027 448.909, 246.999 458.251, 296 447.823 C 326.247 441.386, 361.348 425.150, 387.391 405.549 C 424.248 377.810, 450.287 335.509, 460.675 286.500 C 463.252 274.341, 463.431 271.915, 463.436 249 C 463.441 229.545, 463.065 222.449, 461.613 214.540 C 455.989 183.904, 442.585 152.326, 425.517 129.500 C 417.250 118.444, 399.511 100.946, 387.237 91.741 C 355.701 68.091, 315.836 51.313, 281.026 47.040 C 271.020 45.812, 241.451 45.875, 231.536 47.146 M 243.407 76.968 C 236.894 78.359, 232.809 80.405, 227.679 84.845 C 221.445 90.241, 220.238 90.843, 209.122 94.104 C 202.129 96.156, 198.891 97.682, 196.391 100.106 C 192.473 103.903, 191.648 106.106, 189.070 119.634 C 188.015 125.171, 186.499 131.264, 185.701 133.174 C 183.434 138.598, 178.345 143.710, 170.857 148.083 C 167.075 150.292, 163.254 153.208, 162.366 154.564 C 160.043 158.109, 159.497 165.040, 161.347 167.500 C 162.826 169.467, 162.867 169.457, 163.839 166.911 C 165.134 163.521, 170.174 159.340, 173.973 158.506 C 178.240 157.569, 183.897 159.635, 184.436 162.328 C 184.676 163.522, 185.121 167.333, 185.425 170.796 C 186.039 177.774, 186.994 180.149, 190.872 184.339 C 194.071 187.796, 197.294 189.514, 202.265 190.414 C 205.879 191.069, 206.210 191.481, 210.515 200.694 C 212.982 205.973, 215 210.407, 215 210.547 C 215 210.688, 213.443 211.721, 211.539 212.844 C 209.636 213.967, 206.449 217.154, 204.457 219.927 C 201.616 223.881, 199.938 225.209, 196.668 226.088 C 191.558 227.463, 187.357 229.567, 183.807 232.528 C 180.200 235.538, 157.569 260.073, 147.022 272.409 C 139.463 281.251, 137.772 282.673, 131.330 285.609 C 127.360 287.418, 121.126 290.784, 117.478 293.088 L 110.846 297.277 108.019 294.181 C 106.464 292.479, 104.042 290.798, 102.637 290.445 C 99.950 289.771, 86.742 291.692, 83.750 293.193 C 80.994 294.575, 81.660 297.822, 85.132 299.934 L 88.263 301.838 82.332 304.833 C 75.837 308.111, 73.239 311.709, 74.995 314.991 C 75.548 316.024, 76 318.725, 76 320.994 C 76 324.589, 76.662 325.820, 81.145 330.560 C 84.739 334.360, 87.054 336, 88.822 336 C 90.425 336, 92.299 337.129, 93.927 339.074 C 96.248 341.846, 96.776 342.043, 99.315 341.074 C 100.863 340.483, 103.834 340, 105.916 340 C 109.219 340, 110.332 339.311, 114.650 334.597 C 119.305 329.515, 119.952 329.154, 125.549 328.521 C 133.678 327.601, 141.243 325.397, 148.448 321.849 C 153.109 319.554, 157.287 315.982, 166.628 306.300 C 173.298 299.387, 179.191 294, 179.723 294.329 C 180.290 294.679, 180.943 307.672, 181.302 325.713 C 181.957 358.711, 184.275 393.057, 186.324 400.134 C 187.135 402.935, 188.458 404.944, 190.041 405.780 C 193.391 407.547, 321.413 406.732, 323.585 404.930 C 327.211 401.920, 328.914 382, 329.829 331.928 C 330.198 311.709, 330.837 294.829, 331.250 294.416 C 331.662 294.004, 335.473 297.454, 339.719 302.084 C 343.965 306.713, 349.702 312.651, 352.469 315.279 C 360.940 323.326, 372.810 328, 384.775 328 C 388.968 328, 389.660 328.404, 394.888 333.903 C 400.451 339.754, 400.560 339.812, 407.400 340.446 C 413.770 341.037, 414.500 340.901, 416.900 338.672 C 418.330 337.344, 420.778 335.956, 422.339 335.587 C 423.901 335.219, 427.092 333.023, 429.430 330.709 C 433.535 326.645, 433.704 326.227, 434.342 318.580 C 435.109 309.397, 434.535 308.323, 426.750 304.375 C 421.884 301.907, 420.598 300, 423.800 300 C 427.882 300, 429.514 294.881, 426.027 293.015 C 424.942 292.434, 420.482 291.454, 416.115 290.836 C 408.684 289.785, 407.962 289.849, 404.838 291.836 C 397.264 296.652, 397.631 296.642, 390.789 292.237 C 387.330 290.011, 382.025 287.165, 379 285.914 C 371.198 282.686, 370.359 282.005, 362 272.117 C 340.493 246.676, 327.483 232.266, 324.181 230.228 C 322.156 228.978, 318.585 227.462, 316.245 226.858 C 312.678 225.938, 311.386 224.851, 308.245 220.130 C 305.297 215.698, 303.596 214.187, 300.250 213.031 C 295.479 211.382, 295.135 210.549, 297.976 207.526 C 299.062 206.369, 301.220 202.326, 302.771 198.542 C 305.772 191.220, 306.219 190.791, 312.613 189.094 C 320.794 186.922, 324.896 180.273, 325.751 167.799 L 326.282 160.062 329.749 158.918 C 336.689 156.628, 343.600 159.386, 346.897 165.761 L 348.831 169.500 349.938 166.627 C 351.414 162.792, 350.310 157.522, 347.273 153.913 C 345.911 152.294, 341.706 149.165, 337.929 146.959 C 327.127 140.650, 324.296 135.719, 321.500 118.346 C 318.817 101.669, 315.278 97.854, 300.263 95.449 C 288.525 93.570, 284.012 91.717, 276.680 85.765 C 273.281 83.006, 268.630 79.903, 266.345 78.870 C 261.536 76.695, 249.395 75.688, 243.407 76.968 M 243.296 89.448 C 240.984 90.170, 236.934 92.335, 234.296 94.258 C 228.090 98.781, 221.217 102.166, 212.500 104.990 C 204.007 107.742, 202.202 109.201, 201.491 113.887 C 199.251 128.658, 196.592 135.426, 189.395 144.681 C 186.026 149.014, 185.261 150.581, 186.401 150.817 C 190.071 151.576, 201.808 147.311, 219 138.969 C 235.117 131.149, 238.530 129.859, 245.500 128.958 C 260.192 127.058, 268.707 128.890, 286.500 137.778 C 292.550 140.800, 300.228 144.301, 303.562 145.557 C 310.107 148.023, 324.951 151.382, 325.754 150.579 C 326.025 150.308, 324.396 147.984, 322.134 145.415 C 316.633 139.166, 313.400 132.259, 311.151 121.951 C 310.125 117.250, 308.775 112.448, 308.151 111.281 C 306.929 108.999, 303.157 107.537, 296 106.573 C 287.829 105.472, 279.397 101.821, 271.391 95.920 C 260.807 88.118, 253.176 86.360, 243.296 89.448 M 233.514 144.168 C 231.998 145.360, 230.156 147.775, 229.421 149.534 C 228.181 152.502, 227.644 152.782, 221.949 153.426 C 218.575 153.808, 214.674 154.554, 213.282 155.083 C 210.948 155.970, 210.791 156.416, 211.272 160.773 C 212.135 168.593, 218.063 195.263, 219.722 198.795 C 222.633 204.990, 234.457 210.967, 247.942 213.059 C 264.500 215.628, 288.172 207.714, 292.375 198.204 C 294.391 193.641, 301 163.802, 301 159.260 C 301 155.280, 298.522 154, 290.820 154 C 287.095 154, 283.400 152.948, 276.731 149.988 C 267.863 146.051, 265.443 145.463, 268.476 147.980 C 270.448 149.617, 270.422 151.624, 268.418 152.393 C 263.291 154.360, 252.937 151.377, 243.194 145.124 C 237.405 141.410, 237.063 141.376, 233.514 144.168 M 225.059 157.591 C 220.576 158.914, 216 162.463, 216 164.615 C 216 166.954, 218.122 167.225, 222.708 165.474 C 227.710 163.563, 233.987 163.077, 238.250 164.269 C 240.542 164.910, 241 164.727, 241 163.174 C 241 158.403, 232.450 155.408, 225.059 157.591 M 274.750 157.572 C 272.667 158.702, 272 159.812, 272 162.149 C 272 164.879, 272.258 165.156, 274.250 164.565 C 280.174 162.804, 283.755 162.893, 289.867 164.953 C 293.368 166.134, 296.447 166.886, 296.708 166.625 C 297.908 165.425, 295.460 161.621, 291.765 158.945 C 288.500 156.579, 286.697 156.008, 282.600 156.040 C 279.795 156.062, 276.262 156.751, 274.750 157.572 M 196.100 163.900 C 193.600 166.400, 193.492 168.309, 195.526 174.075 C 197.466 179.573, 199.670 182, 202.722 182 C 204.553 182, 205.008 181.578, 204.610 180.250 C 204.322 179.287, 203.171 175.153, 202.054 171.061 C 199.592 162.045, 198.849 161.151, 196.100 163.900 M 311.513 163.250 C 310.320 166.762, 307.223 181.557, 307.602 181.935 C 308.810 183.144, 313.498 180.084, 315.138 177.016 C 317.430 172.727, 317.582 165.724, 315.429 163.571 C 313.535 161.678, 312.087 161.559, 311.513 163.250 M 223.636 167.636 C 220.506 170.767, 220.323 173.378, 222.935 177.661 C 225.469 181.817, 228.254 182.621, 232.173 180.326 C 239.608 175.972, 240.613 170.564, 234.661 166.935 C 230.298 164.274, 226.774 164.498, 223.636 167.636 M 275.455 167.455 C 274.105 168.805, 273 170.814, 273 171.920 C 273 174.260, 278.294 180.641, 280.930 181.478 C 283.891 182.418, 287.601 180.382, 290 176.499 C 292.792 171.982, 291.821 169.092, 286.692 166.658 C 281.802 164.338, 278.325 164.584, 275.455 167.455 M 252.552 181.916 C 252.240 182.420, 252.428 183.995, 252.968 185.416 C 254.707 189.990, 261 188.332, 261 183.300 C 261 181.289, 260.505 181, 257.059 181 C 254.891 181, 252.863 181.412, 252.552 181.916 M 270.491 187.014 C 270.146 187.572, 268.021 188.969, 265.769 190.118 C 260.224 192.947, 249.914 192.499, 245.323 189.230 C 241.305 186.369, 237 186.230, 237 188.961 C 237 193.884, 246.353 198.012, 257.428 197.978 C 266.526 197.950, 272.496 195.429, 274.445 190.794 C 275.202 188.993, 275.610 187.178, 275.352 186.760 C 274.666 185.651, 271.223 185.831, 270.491 187.014 M 218.290 219.939 C 214.391 222.347, 211.447 227.859, 209.588 236.229 C 206.795 248.803, 206.757 249.757, 208.962 251.962 C 210.083 253.083, 212.012 254.003, 213.250 254.006 C 222.336 254.028, 226.612 258.783, 225.678 267.826 C 224.923 275.145, 226.797 279.051, 233.402 283.920 C 238.710 287.832, 261.246 301.088, 261.743 300.590 C 262.412 299.921, 240.579 262.751, 229.147 245.095 C 223.590 236.512, 223.605 231.508, 229.207 225.348 C 230.312 224.133, 231.020 222.173, 230.832 220.848 C 230.547 218.831, 229.866 218.462, 226 218.228 C 222.885 218.040, 220.512 218.566, 218.290 219.939 M 279.081 219.848 C 278.284 221.339, 278.757 222.342, 281.527 225.026 C 285.324 228.707, 287.489 233.916, 286.635 237.319 C 286.329 238.537, 284.347 241.854, 282.231 244.691 C 280.114 247.528, 274.813 256.807, 270.452 265.311 L 262.522 280.774 264.290 284.483 L 266.059 288.191 268.779 286.378 C 270.276 285.381, 273.975 283.273, 277 281.695 C 286.069 276.963, 286.293 276.614, 285.525 268.419 C 284.897 261.718, 285.008 261.143, 287.519 258.160 C 289.654 255.622, 290.935 255, 294.024 255 C 303.804 255, 305.527 252.323, 303.463 240.332 C 301.498 228.918, 298.073 221.737, 293.576 219.603 C 288.749 217.313, 280.362 217.455, 279.081 219.848 M 261.469 230.336 C 258.017 232.671, 256.319 232.879, 253.374 231.329 C 251.316 230.247, 248.979 229.991, 245.145 230.430 C 234.601 231.636, 233.764 233.974, 240.271 244.043 C 242.597 247.641, 246.953 255.178, 249.951 260.793 C 252.949 266.407, 255.673 271, 256.004 271 C 257.229 271, 275.209 238.486, 275.718 235.350 C 276.195 232.413, 275.968 232.038, 273.373 231.457 C 269.879 230.675, 267.010 229.981, 264.969 229.423 C 264.127 229.193, 262.552 229.604, 261.469 230.336 M 192.882 237.757 C 191.441 238.715, 187.779 242.425, 184.743 246 C 181.708 249.575, 176.474 255.650, 173.114 259.500 C 169.753 263.350, 163.066 271.212, 158.252 276.972 C 146.072 291.544, 145.138 292.416, 139.500 294.462 C 129.470 298.104, 124.173 300.849, 120.130 304.502 C 115.486 308.697, 114.852 311.948, 117.902 315.917 C 120.120 318.801, 124.557 318.950, 132.419 316.402 C 143.058 312.955, 148.575 309.120, 160.209 297.088 C 173.930 282.897, 187.942 270.516, 188.988 271.659 C 189.411 272.122, 190.275 286.900, 190.907 304.500 C 192.837 358.252, 194.838 387.973, 196.797 392 L 198.500 395.500 211.500 395.500 L 224.500 395.500 224.425 386.500 C 224.383 381.550, 223.765 358.150, 223.050 334.500 L 221.751 291.500 219.171 286.500 C 217.350 282.969, 216.409 279.209, 215.970 273.702 C 215.482 267.575, 214.885 265.441, 213.187 263.742 C 211.229 261.784, 210.626 261.687, 206.802 262.707 C 201.296 264.177, 197.625 262.424, 196.019 257.559 C 195.061 254.656, 195.225 252.826, 197.011 246.459 C 199.898 236.173, 198.784 233.827, 192.882 237.757 M 313 238.841 C 313 240.404, 313.670 243.891, 314.489 246.591 C 316.930 254.638, 316.511 258.392, 312.825 261.494 C 310.583 263.380, 308.965 263.995, 307.325 263.583 C 306.046 263.262, 303.902 262.728, 302.560 262.395 C 300.759 261.948, 299.451 262.458, 297.569 264.340 C 295.245 266.665, 295.071 267.403, 295.609 272.695 C 296.132 277.842, 295.904 278.930, 293.599 282.294 C 291.176 285.832, 291 286.857, 291 297.432 C 291 310.562, 289.417 352.107, 288.012 375.857 C 287.363 386.827, 287.377 392.837, 288.057 394.107 C 288.940 395.757, 290.269 396, 298.410 396 C 311.631 396, 313.939 395.389, 315.582 391.458 C 316.415 389.464, 317.333 380.548, 317.961 368.355 C 319.037 347.463, 320.986 289.248, 320.995 277.750 C 320.998 273.949, 321.434 271, 321.994 271 C 323.845 271, 338.962 285.066, 348.658 295.810 C 360.498 308.931, 363.918 311.505, 374.323 315.127 C 387.444 319.694, 393 318.541, 393 311.248 C 393 305.300, 385.836 299.919, 370.737 294.526 C 367.208 293.265, 364.587 291.228, 360.618 286.662 C 357.671 283.273, 350.557 275.100, 344.808 268.500 C 339.059 261.900, 331.594 252.719, 328.219 248.097 C 322.057 239.659, 318.002 236.019, 314.750 236.007 C 313.492 236.002, 313 236.799, 313 238.841 M 278.352 289.993 C 274.817 291.420, 274.618 292.991, 277.578 296.081 C 279.116 297.687, 280.740 299, 281.187 299 C 281.634 299, 282 296.750, 282 294 C 282 288.770, 281.835 288.588, 278.352 289.993 M 230.986 300.152 C 230.958 312.850, 233.144 391.561, 233.585 393.750 C 234.037 395.993, 234.100 396, 253.984 396 C 271.964 396, 274.020 395.828, 274.846 394.250 C 275.681 392.655, 277.953 351.363, 278.319 331.123 L 278.471 322.745 274.346 319.123 C 272.077 317.130, 262.858 311.568, 253.860 306.763 C 244.862 301.958, 236.037 297.076, 234.250 295.915 L 231 293.804 230.986 300.152 M 97.667 299.667 C 97.300 300.033, 97 301.137, 97 302.120 C 97 306.220, 94.668 308.883, 88.874 311.395 C 85.643 312.796, 83 314.406, 83 314.971 C 83 315.568, 85.664 316, 89.345 316 C 97.666 316, 99.584 317.850, 99.308 325.608 C 99.116 330.970, 99.132 331, 102.103 331 C 105.735 331, 110 327.078, 110 323.737 C 110 321.270, 105.024 306.881, 102.448 301.900 C 101.015 299.129, 99.099 298.234, 97.667 299.667 M 408.147 300.750 C 407.006 301.712, 404.500 306.948, 402.578 312.383 C 399.342 321.540, 399.186 322.509, 400.458 325.553 C 402.035 329.328, 404.604 331, 408.828 331 L 411.787 331 410.758 326.945 C 408.876 319.530, 412.362 316, 421.565 316 C 427.510 316, 427.453 313.720, 421.451 311.428 C 416.396 309.497, 413.467 306.400, 412.490 301.953 C 411.740 298.538, 411.009 298.336, 408.147 300.750 M 275.962 306.958 C 279.603 310.157, 282.162 311.105, 279.945 308.434 C 279.230 307.573, 277.263 306.204, 275.573 305.392 L 272.500 303.916 275.962 306.958 M 88 323.941 C 88 325.673, 89.760 325.994, 91.009 324.489 C 92.038 323.250, 91.889 323, 90.122 323 C 88.955 323, 88 323.423, 88 323.941 M 418.262 324.690 C 419.192 325.620, 420.233 326.100, 420.576 325.757 C 421.561 324.773, 420.050 323, 418.227 323 C 416.700 323, 416.703 323.132, 418.262 324.690" stroke="none" fill="black" fill-rule="evenodd"/>
</svg>